<?xml version="1.0" encoding="UTF-8"?>
<svg xmlns="http://www.w3.org/2000/svg" xmlns:xlink="http://www.w3.org/1999/xlink" width="96pt" height="96pt" viewBox="0 0 96 96" version="1.1">
<defs>
<linearGradient id="linear0" gradientUnits="userSpaceOnUse" x1="86.247253" y1="20.87113" x2="86.247253" y2="153.364883" gradientTransform="matrix(0.55814,0,0,0.55814,0,0)">
<stop offset="0" style="stop-color:rgb(0%,77.64706%,100%);stop-opacity:1;"/>
<stop offset="1" style="stop-color:rgb(0%,44.705883%,100%);stop-opacity:1;"/>
</linearGradient>
<linearGradient id="linear1" gradientUnits="userSpaceOnUse" x1="86.002693" y1="20.87113" x2="86.002693" y2="153.364883" gradientTransform="matrix(0.55814,0,0,0.55814,0,0)">
<stop offset="0" style="stop-color:rgb(0%,77.64706%,100%);stop-opacity:1;"/>
<stop offset="1" style="stop-color:rgb(0%,44.705883%,100%);stop-opacity:1;"/>
</linearGradient>
<linearGradient id="linear2" gradientUnits="userSpaceOnUse" x1="85.986557" y1="52.607811" x2="85.986557" y2="109.182381" gradientTransform="matrix(0.55814,0,0,0.55814,0,0)">
<stop offset="0" style="stop-color:rgb(43.921569%,87.450981%,100%);stop-opacity:1;"/>
<stop offset="1" style="stop-color:rgb(43.921569%,68.627453%,100%);stop-opacity:1;"/>
</linearGradient>
</defs>
<g id="surface44651733">
<path style=" stroke:none;fill-rule:nonzero;fill:url(#linear0);" d="M 79.972656 12.484375 C 79.691406 12.175781 79.289062 12 78.867188 12 L 20.40625 12 C 19.148438 12 17.9375 12.53125 17.089844 13.460938 C 16.238281 14.390625 15.8125 15.640625 15.925781 16.894531 L 20.902344 73.316406 C 21.066406 75.160156 22.371094 76.738281 24.148438 77.246094 L 46.761719 83.707031 C 47.167969 83.820312 47.582031 83.878906 48 83.878906 C 48.414062 83.878906 48.832031 83.820312 49.234375 83.707031 L 71.847656 77.246094 C 73.625 76.738281 74.929688 75.15625 75.09375 73.3125 L 80.359375 13.632812 C 80.398438 13.214844 80.257812 12.796875 79.972656 12.484375 Z M 72.109375 73.046875 C 72.050781 73.675781 71.628906 74.1875 71.023438 74.359375 L 48.414062 80.820312 C 48.140625 80.902344 47.855469 80.902344 47.585938 80.820312 L 24.972656 74.359375 C 24.371094 74.1875 23.945312 73.675781 23.890625 73.050781 L 18.914062 16.632812 C 18.875 16.207031 19.011719 15.800781 19.300781 15.488281 C 19.589844 15.171875 19.980469 15 20.40625 15 L 77.230469 15 Z M 72.109375 73.046875 "/>
<path style=" stroke:none;fill-rule:nonzero;fill:url(#linear1);" d="M 27.78125 72.042969 L 47.589844 77.703125 C 47.722656 77.738281 47.863281 77.757812 48 77.757812 C 48.136719 77.757812 48.277344 77.738281 48.410156 77.703125 L 68.21875 72.042969 C 68.816406 71.871094 69.246094 71.347656 69.300781 70.730469 L 73.808594 19.632812 C 73.847656 19.214844 73.707031 18.796875 73.421875 18.484375 C 73.136719 18.175781 72.738281 18 72.316406 18 L 23.683594 18 C 23.265625 18 22.863281 18.175781 22.578125 18.484375 C 22.296875 18.796875 22.15625 19.210938 22.191406 19.632812 L 26.699219 70.730469 C 26.753906 71.347656 27.183594 71.871094 27.78125 72.042969 Z M 70.679688 21 L 66.402344 69.441406 L 48 74.699219 L 29.59375 69.441406 L 25.324219 21 Z M 70.679688 21 "/>
<path style=" stroke:none;fill-rule:nonzero;fill:url(#linear2);" d="M 62.492188 35.3125 L 62.859375 30.8125 C 62.894531 30.375 62.550781 30 62.113281 30 L 33.875 30 C 33.441406 30 33.097656 30.367188 33.125 30.796875 L 34.171875 47.296875 C 34.195312 47.691406 34.527344 48 34.921875 48 L 54.296875 48 C 54.730469 48 55.074219 48.367188 55.042969 48.800781 L 54.640625 54.890625 C 54.621094 55.191406 54.421875 55.453125 54.136719 55.550781 L 48.160156 57.589844 C 48.003906 57.644531 47.835938 57.644531 47.675781 57.589844 L 41.699219 55.550781 C 41.414062 55.453125 41.21875 55.195312 41.195312 54.894531 L 40.957031 51.695312 C 40.925781 51.304688 40.601562 51 40.207031 51 L 35.183594 51 C 34.75 51 34.40625 51.367188 34.433594 51.800781 L 34.996094 59.78125 C 35.015625 60.085938 35.222656 60.34375 35.507812 60.441406 L 47.683594 64.449219 C 47.835938 64.496094 48 64.496094 48.152344 64.449219 L 60.320312 60.441406 C 60.613281 60.347656 60.816406 60.082031 60.835938 59.777344 L 61.894531 42.796875 C 61.921875 42.363281 61.582031 42 61.148438 42 L 41.105469 42 C 40.714844 42 40.390625 41.699219 40.359375 41.3125 L 39.992188 36.8125 C 39.957031 36.375 40.300781 36 40.738281 36 L 61.746094 36 C 62.132812 36 62.460938 35.699219 62.492188 35.3125 Z M 62.492188 35.3125 "/>
</g>
</svg>
