<?xml version="1.0" encoding="UTF-8"?>
<svg xmlns="http://www.w3.org/2000/svg" xmlns:xlink="http://www.w3.org/1999/xlink" width="96pt" height="96pt" viewBox="0 0 96 96" version="1.1">
<g id="surface46009353">
<path style=" stroke:none;fill-rule:nonzero;fill:rgb(12.54902%,63.137257%,100%);fill-opacity:1;" d="M 37.5 3 C 28.402344 3 21 10.402344 21 19.5 C 21 24.472656 23.222656 28.929688 26.714844 31.957031 C 21.53125 34.742188 18 40.214844 18 46.5 C 18 52.082031 20.796875 57.011719 25.046875 60 C 20.796875 62.988281 18 67.917969 18 73.5 C 18 82.597656 25.402344 90 34.5 90 C 43.597656 90 51 82.597656 51 73.5 L 51 36 L 61.5 36 C 70.597656 36 78 28.597656 78 19.5 C 78 10.402344 70.597656 3 61.5 3 Z M 37.5 9 L 61.5 9 C 67.289062 9 72 13.710938 72 19.5 C 72 25.289062 67.289062 30 61.5 30 L 37.5 30 C 31.710938 30 27 25.289062 27 19.5 C 27 13.710938 31.710938 9 37.5 9 Z M 34.5 36 L 45 36 L 45 57 L 34.5 57 C 28.710938 57 24 52.289062 24 46.5 C 24 40.710938 28.710938 36 34.5 36 Z M 63 36 C 56.371094 36 51 41.371094 51 48 C 51 54.628906 56.371094 60 63 60 C 69.628906 60 75 54.628906 75 48 C 75 41.371094 69.628906 36 63 36 Z M 34.5 63 L 45 63 L 45 73.5 C 45 79.289062 40.289062 84 34.5 84 C 28.710938 84 24 79.289062 24 73.5 C 24 67.710938 28.710938 63 34.5 63 Z M 34.5 63 "/>
</g>
</svg>
