<svg width="200" height="200" viewBox="0 0 200 200" fill="none" xmlns="http://www.w3.org/2000/svg">
<rect width="200" height="200" rx="100" fill="#3D6BFF"/>
<path d="M150.943 102.292V80.4028H153.644C155.065 80.4028 156.06 78.8393 155.35 77.56L148.527 64.0567C147.816 62.7775 146.679 61.6404 145.258 61.2139L133.318 56.8076C132.039 56.3812 130.475 56.3812 129.196 56.8076L117.398 61.0718C115.977 61.6404 114.84 62.6353 114.129 63.9146L107.306 77.4179C106.596 78.6972 107.591 80.2607 109.012 80.2607H111.713V89.7841C106.738 89.9262 101.905 90.0683 97.3565 90.2105C96.5036 90.2105 95.7929 91.0633 95.7929 91.9162V121.197C95.7929 122.192 96.5036 122.903 97.4986 122.903H164.162C166.294 122.903 168 121.197 168 119.065V106.983C167.858 104.851 161.035 103.287 150.943 102.292ZM103.895 101.155C102.189 101.297 100.626 101.297 99.0621 101.297V93.4797C100.626 93.3376 102.189 93.3376 103.895 93.3376V101.155ZM111.713 101.013C110.149 101.013 108.728 101.013 107.164 101.155V93.3376C108.586 93.3376 110.149 93.1954 111.713 93.1954V101.013ZM126.495 69.6002C126.495 68.8895 127.064 68.4631 127.632 68.4631H134.739C135.45 68.4631 135.876 69.0316 135.876 69.6002V74.7172C135.876 75.4279 135.308 75.8544 134.739 75.8544H127.632C126.922 75.8544 126.495 75.2858 126.495 74.7172V69.6002ZM138.293 83.6721L131.328 90.779L124.221 83.6721H138.293ZM121.378 86.3727L128.485 93.4797L121.378 100.729V86.3727ZM124.363 103.287L131.328 96.1804L138.435 103.287H124.363ZM141.278 100.445L134.171 93.3376L141.278 86.0884V100.445Z" fill="white"/>
<path d="M42.2062 59.5083H45.9019C45.9019 59.9347 45.7597 60.5033 45.7597 60.9297C45.7597 66.6153 50.3082 71.1638 55.9938 71.1638C61.6794 71.1638 66.2279 66.6153 66.2279 60.9297C66.2279 60.5033 66.0857 59.9347 66.0857 59.5083H69.7814C70.7763 59.5083 71.6292 58.6555 71.6292 57.6605C71.6292 56.6655 70.7763 55.8127 69.7814 55.8127H66.0857C65.375 50.8378 61.1108 47 55.9938 47C50.8768 47 46.6126 50.8378 45.9019 55.8127H42.2062C41.2112 55.8127 40.3584 56.6655 40.3584 57.6605C40.5005 58.6555 41.2112 59.5083 42.2062 59.5083Z" fill="white"/>
<path d="M96.6458 61.356C96.6458 60.361 95.7929 59.5082 94.7979 59.5082C93.803 59.5082 92.9501 60.361 92.9501 61.356V72.585C92.9501 74.2907 91.5287 75.7121 89.823 75.7121H87.4067V61.356C87.4067 60.361 86.5538 59.5082 85.5589 59.5082C84.5639 59.5082 83.711 60.361 83.711 61.356V75.8543H81.2947C79.589 75.8543 78.1676 74.4329 78.1676 72.7272V61.4981C78.1676 60.5032 77.3147 59.6503 76.3198 59.6503C75.3248 59.6503 74.7562 60.361 74.7562 61.356V72.585C74.7562 76.2807 77.7412 79.4077 81.5789 79.4077H83.9953V90.4947C81.5789 90.3525 77.4569 89.4997 75.7512 87.6519C75.4669 87.2254 74.7562 85.6619 74.1877 84.6669C72.0556 80.2606 68.7864 73.4379 62.1058 73.4379H50.4503C42.4905 73.4379 39.3634 81.8241 37.6577 86.3726C37.3734 86.9412 37.2313 87.5097 37.0892 87.9361C35.3835 91.916 33.3935 102.434 33.1092 103.572C32.5407 106.13 34.2464 108.689 36.947 109.257C37.2313 109.257 37.5156 109.399 37.942 109.399C40.2162 109.399 42.2062 107.836 42.6326 105.561C43.4855 101.439 45.049 94.0481 46.044 91.7739C46.1861 91.6318 46.1861 91.3475 46.3283 91.0632L46.6125 106.699L41.7798 146.924C41.4955 149.767 43.4855 152.183 46.1861 152.61C46.3283 152.61 46.6125 152.61 46.7547 152.61C49.3132 152.61 51.4453 150.762 51.7296 148.061L55.9938 111.531L60.258 148.061C60.5422 150.904 63.1008 152.894 65.9436 152.468C68.7864 152.183 70.7763 149.625 70.3499 146.782L65.6593 106.556L65.9436 90.3525C66.6543 91.7739 67.365 93.0532 68.3599 94.1903C72.9084 99.1652 80.8682 99.8759 83.711 100.018V149.909C83.711 150.904 84.5639 151.757 85.5589 151.757C86.5538 151.757 87.4067 150.904 87.4067 149.909V99.3073C88.6859 98.4545 89.5388 97.0331 89.5388 95.3274C89.5388 93.6217 88.6859 92.2003 87.4067 91.3475V79.2656H89.823C93.5187 79.2656 96.6458 76.2807 96.6458 72.4429V61.356Z" fill="white"/>
</svg>
