<svg width="200" height="200" viewBox="0 0 200 200" fill="none" xmlns="http://www.w3.org/2000/svg">
<rect width="200" height="200" rx="100" fill="#3D6BFF"/>
<path d="M156.333 43.0142C156.333 43.0142 113.04 40.9175 78.9267 87.6675C52.7467 123.538 43 156.348 43 156.348L53.9933 150.681C62.1533 136.514 66.4033 130.678 74.3933 122.348C88.73 126.541 103.69 126.031 116.667 111.014C105.333 107.841 96.2667 108.578 82.8933 109.938C97.91 99.6809 108.167 97.4142 122.333 99.6809L128 88.3475C117.8 86.4209 111 86.2509 100.913 88.5742C112.077 80.6975 119.84 76.2775 133.667 77.0142L140.523 66.0775C131.683 65.4542 126.357 66.4175 116.213 68.9109C125.337 60.6375 133.667 56.8975 145.793 56.1609C145.793 56.1609 151.743 45.4509 156.333 43.0142Z" fill="white"/>
</svg>
