<svg width="200" height="200" viewBox="0 0 200 200" fill="none" xmlns="http://www.w3.org/2000/svg">
<rect width="200" height="200" rx="100" fill="#3D6BFF"/>
<path d="M122.932 135.489C122.699 135.489 122.472 135.417 122.281 135.283C122.09 135.149 121.945 134.96 121.866 134.741C121.786 134.522 121.776 134.284 121.837 134.059C121.898 133.834 122.027 133.633 122.206 133.484C127.985 128.66 132.349 122.361 134.837 115.256C134.936 114.973 135.144 114.74 135.416 114.61C135.687 114.48 135.998 114.462 136.282 114.562C136.566 114.661 136.798 114.87 136.929 115.141C137.059 115.412 137.076 115.723 136.977 116.007C134.353 123.498 129.751 130.14 123.657 135.226C123.454 135.396 123.197 135.489 122.932 135.489Z" fill="white"/>
<path d="M140.78 117.75C140.567 117.75 140.357 117.69 140.176 117.576C139.995 117.462 139.85 117.3 139.758 117.107L137.33 112.055C137.304 112.001 137.258 111.96 137.201 111.94C137.144 111.92 137.082 111.923 137.028 111.949L131.977 114.376C131.706 114.505 131.396 114.521 131.113 114.421C130.83 114.322 130.599 114.114 130.469 113.844C130.339 113.574 130.321 113.263 130.42 112.98C130.518 112.697 130.725 112.464 130.995 112.333L136.046 109.905C136.642 109.619 137.328 109.582 137.952 109.801C138.576 110.02 139.088 110.478 139.375 111.074L141.802 116.125C141.886 116.298 141.923 116.489 141.913 116.68C141.902 116.871 141.843 117.057 141.741 117.219C141.639 117.382 141.497 117.515 141.329 117.608C141.162 117.701 140.973 117.75 140.781 117.75H140.78Z" fill="white"/>
<path d="M63.0712 84.8789C62.8788 84.8788 62.6896 84.8297 62.5214 84.7363C62.3532 84.6429 62.2116 84.5082 62.1098 84.345C62.008 84.1817 61.9494 83.9953 61.9396 83.8031C61.9298 83.611 61.969 83.4195 62.0535 83.2467C65.5368 76.1145 70.8865 70.0587 77.5348 65.7224C77.7868 65.5584 78.0936 65.5011 78.3879 65.5633C78.6821 65.6256 78.9395 65.8021 79.1035 66.0541C79.2676 66.3061 79.3248 66.613 79.2626 66.9072C79.2004 67.2014 79.0239 67.4588 78.7719 67.6229C72.4669 71.7356 67.3935 77.479 64.0903 84.2432C63.997 84.434 63.852 84.5947 63.6718 84.7071C63.4916 84.8195 63.2835 84.879 63.0712 84.8789Z" fill="white"/>
<path d="M61.4554 89.5503C60.9352 89.55 60.4281 89.3875 60.0046 89.0854C59.5812 88.7832 59.2625 88.3565 59.0931 87.8647L57.273 82.5639C57.2247 82.423 57.2046 82.274 57.2139 82.1254C57.2231 81.9768 57.2616 81.8315 57.327 81.6977C57.3925 81.564 57.4836 81.4444 57.5953 81.3459C57.7069 81.2473 57.8369 81.1718 57.9777 81.1235C58.1186 81.0752 58.2675 81.0551 58.4162 81.0643C58.5648 81.0736 58.7101 81.1121 58.8439 81.1775C58.9776 81.2429 59.0972 81.3341 59.1957 81.4457C59.2942 81.5574 59.3698 81.6873 59.4181 81.8282L61.2365 87.129C61.2461 87.1573 61.2612 87.1834 61.281 87.2058C61.3008 87.2283 61.3248 87.2465 61.3516 87.2597C61.3785 87.2728 61.4077 87.2804 61.4375 87.2822C61.4673 87.284 61.4972 87.2799 61.5255 87.2701L66.8263 85.4523C66.9675 85.4022 67.1173 85.3807 67.267 85.3889C67.4166 85.3971 67.5631 85.4349 67.698 85.5001C67.833 85.5653 67.9536 85.6566 68.0531 85.7687C68.1525 85.8808 68.2287 86.0115 68.2773 86.1533C68.326 86.295 68.346 86.445 68.3363 86.5945C68.3265 86.7441 68.2873 86.8902 68.2207 87.0245C68.1542 87.1587 68.0617 87.2785 67.9486 87.3768C67.8355 87.4751 67.704 87.55 67.5617 87.5972L62.2617 89.4152C62.0022 89.5044 61.7298 89.55 61.4554 89.5503Z" fill="white"/>
<path d="M162.411 50.1368C162.088 48.6906 160.634 47.2696 158.989 47.4561C153.426 48.096 143.622 48.7838 141.995 48.3832C141.088 48.1615 140.221 47.9902 139.38 47.8239C139.024 47.7534 138.674 47.6853 138.329 47.6123C138.258 47.5971 138.188 47.582 138.117 47.5694C138.133 47.2114 138.106 46.8528 138.037 46.5011C137.195 42.2784 132.35 39.4691 129.392 41.4016C128.848 38.8972 126.331 37 123.214 37C120.098 37 117.573 38.8972 117.026 41.4016C113.239 38.9325 106.608 44.0043 108.344 50.0235C107.448 49.9935 106.574 50.3061 105.9 50.8977C105.512 51.2705 105.209 51.7214 105.008 52.2204C104.808 52.7195 104.716 53.2554 104.738 53.7927C104.751 54.8131 105.27 55.8133 106.197 56.612C107.009 57.298 107.993 57.75 109.042 57.9197C109.014 58.1149 109.003 58.3121 109.009 58.5092C109.021 59.0663 109.157 59.6138 109.407 60.1117C108.98 60.2819 108.585 60.5248 108.241 60.8297C107.878 61.1567 107.592 61.5597 107.403 62.0101C107.214 62.4604 107.126 62.947 107.147 63.4349C107.161 64.0482 107.325 64.6487 107.626 65.1835C107.256 65.346 106.914 65.5663 106.613 65.836C106.25 66.1609 105.964 66.5622 105.775 67.0109C105.586 67.4596 105.499 67.9447 105.52 68.4311C105.521 69.1299 105.731 69.8124 106.122 70.3916C106.512 70.9709 107.067 71.4207 107.714 71.6839C104.063 75.9897 99.5634 82.0744 99.5634 90.2402C99.5634 100.999 110.536 106.542 123.176 106.549H123.194C135.842 106.549 146.822 101.004 146.822 90.2402C146.822 82.1953 142.592 76.3551 138.974 72.0719C140.546 71.5377 141.806 70.6382 143.028 69.764C143.663 69.3105 144.262 68.8821 144.895 68.5118C145.943 67.897 155.552 65.7277 161.032 64.6896C162.33 64.4427 163.227 63.3417 163.378 61.8123C163.658 58.9476 163.234 53.8179 162.411 50.1368ZM107.676 54.8937C107.494 54.7592 107.341 54.5895 107.226 54.3947C107.111 54.2 107.036 53.9841 107.006 53.7599C106.989 53.5452 107.018 53.3294 107.089 53.1264C107.161 52.9233 107.274 52.7374 107.422 52.5808C107.689 52.3389 108.415 52.1273 109.324 52.1802C109.347 52.218 109.369 52.2558 109.395 52.2936C110.012 53.2543 110.536 54.2727 110.957 55.3346C110.81 55.4089 110.667 55.4924 110.531 55.5848C110.293 55.6941 110.034 55.7488 109.772 55.7451C108.991 55.7354 108.243 55.4314 107.676 54.8937ZM109.941 69.7312C109.642 69.7772 109.337 69.7738 109.039 69.7211C108.948 69.7047 108.858 69.6828 108.77 69.6556C108.482 69.5872 108.228 69.4217 108.048 69.1872C107.869 68.9526 107.776 68.6633 107.785 68.3682C107.774 68.2088 107.8 68.0492 107.86 67.9015C107.921 67.7538 108.015 67.6221 108.135 67.5166C108.515 67.1714 109.165 66.9849 109.939 66.9849C110.17 66.9875 110.4 67.0026 110.629 67.0303C110.972 67.0807 111.516 67.7635 111.519 68.4866C111.521 69.1618 110.989 69.58 109.941 69.7312ZM111.584 64.7249C111.579 64.7249 111.574 64.7274 111.569 64.7274C111.286 64.7678 111 64.7678 110.717 64.7274C110.14 64.6443 109.442 64.3394 109.412 63.3644C109.401 63.2051 109.427 63.0454 109.488 62.8977C109.549 62.75 109.643 62.6183 109.762 62.5128C110.143 62.1676 110.79 61.9811 111.561 61.9811C111.669 61.9811 111.929 62.0036 112.107 62.0199C112.289 62.0336 112.461 62.1081 112.595 62.2313C112.93 62.5635 113.124 63.0114 113.139 63.4828C113.144 64.158 112.615 64.5788 111.584 64.7249ZM113.416 59.7942C112.951 59.8514 112.479 59.7987 112.038 59.6405C111.803 59.5414 111.604 59.373 111.467 59.1578C111.331 58.9426 111.264 58.6908 111.274 58.4362C111.263 58.2933 111.283 58.1497 111.334 58.0156C111.384 57.8815 111.464 57.7602 111.566 57.6601C111.576 57.6526 111.642 57.5846 111.67 57.5619C112.087 57.2537 112.588 57.0805 113.106 57.0655C113.445 57.048 113.785 57.0606 114.121 57.1033C114.464 57.1537 115.006 57.8365 115.008 58.5571C115.011 59.2273 114.489 59.7171 113.416 59.7942ZM123.586 80.2054C126.367 80.2054 128.63 82.1898 128.63 84.6292C128.63 86.7204 126.956 88.4738 124.719 88.9255V90.6972C124.719 90.9979 124.6 91.2863 124.387 91.4989C124.175 91.7116 123.886 91.831 123.586 91.831C123.285 91.831 122.996 91.7116 122.784 91.4989C122.571 91.2863 122.452 90.9979 122.452 90.6972V88.925C120.221 88.4715 118.552 86.7202 118.552 84.6292C118.552 84.3285 118.671 84.0401 118.884 83.8275C119.096 83.6149 119.385 83.4954 119.685 83.4954C119.986 83.4954 120.274 83.6149 120.487 83.8275C120.7 84.0401 120.819 84.3285 120.819 84.6292C120.819 85.8121 122.06 86.7746 123.586 86.7746C125.117 86.7746 126.363 85.8121 126.363 84.6292C126.363 83.4402 125.117 82.473 123.586 82.473C120.81 82.473 118.552 80.4934 118.552 78.0603C118.552 75.964 120.221 74.2074 122.452 73.7539V71.9922C122.452 71.6915 122.571 71.4032 122.784 71.1905C122.996 70.9779 123.285 70.8585 123.586 70.8585C123.886 70.8585 124.175 70.9779 124.387 71.1905C124.6 71.4032 124.719 71.6915 124.719 71.9922V73.7531C126.956 74.2067 128.63 75.963 128.63 78.0615C128.63 78.3622 128.511 78.6506 128.298 78.8632C128.085 79.0759 127.797 79.1953 127.496 79.1953C127.196 79.1953 126.907 79.0759 126.695 78.8632C126.482 78.6506 126.363 78.3622 126.363 78.0615C126.363 76.8726 125.117 75.9053 123.586 75.9053C122.06 75.9053 120.819 76.8726 120.819 78.0615C120.819 79.2432 122.06 80.2054 123.586 80.2054ZM161.121 61.5906C161.103 61.7745 161.012 62.3843 160.612 62.4624C158.692 62.8252 145.565 65.4808 143.746 66.5566C143.03 66.9749 142.358 67.4561 141.71 67.9197C140.465 68.8091 139.291 69.6481 137.873 70.0386C137.709 70.0836 137.558 70.1645 137.429 70.2754C137.228 70.0436 137.031 69.8169 136.842 69.5952C136.83 69.58 136.815 69.5624 136.799 69.5473C134.737 67.1938 133.529 64.2126 133.373 61.087C133.481 61.1444 133.591 61.1999 133.703 61.2535C133.725 61.2641 135.025 61.736 135.232 61.7917C135.758 61.9266 136.301 61.9904 136.844 61.9814C137.466 61.9108 137.978 61.474 137.978 60.8476C137.978 60.5469 137.858 60.2585 137.646 60.0459C137.433 59.8333 137.145 59.7138 136.844 59.7138C136.122 59.6427 135.412 59.4824 134.73 59.2366C134.446 59.1084 134.175 58.955 133.919 58.7781H133.918C133.778 58.6853 133.636 58.5853 133.493 58.478C133.387 58.3986 133.278 58.3137 133.169 58.226C133.154 58.2134 133.138 58.2008 133.123 58.1885C133.013 58.0988 132.902 58.0045 132.79 57.9056L132.785 57.9013C132.221 57.3923 131.684 56.8232 131.163 56.2716C129.656 54.6743 128.099 53.0189 125.965 53.1726C124.113 53.3112 121.215 54.0318 120.374 54.251C119.547 54.4968 118.657 54.4231 117.882 54.0444C117.265 53.7143 116.995 53.2406 117.005 52.9433C117.018 52.5704 117.474 52.3109 117.744 52.19C118.709 51.7566 119.56 51.346 120.308 50.9831C122.848 49.7536 124.526 48.9398 127.728 48.6551C130.591 48.4006 133.594 48.9398 137.474 49.7536C137.605 49.7788 137.736 49.8065 137.867 49.8342C138.22 49.9073 138.58 49.9804 138.943 50.0509C139.757 50.2122 140.601 50.3785 141.455 50.5876C143.77 51.1545 154.97 50.2046 159.25 49.7108C159.563 49.6705 160.087 50.1265 160.2 50.6354C160.964 54.0572 161.378 58.9728 161.121 61.5906Z" fill="white"/>
<path d="M96.6591 106.655C95.131 105.513 91.8848 103.438 88.6157 103.574C86.326 103.669 84.3754 105.155 83.3207 106.173C83.2756 106.217 83.2457 106.274 83.2355 106.336C83.2253 106.398 83.2352 106.462 83.2638 106.518C83.2924 106.574 83.3383 106.62 83.3946 106.648C83.4509 106.676 83.5148 106.686 83.5769 106.675C88.845 105.768 90.7324 106.06 91.4283 106.586C91.4602 106.611 91.4838 106.644 91.4957 106.683C91.5077 106.721 91.5074 106.762 91.4949 106.801C91.4824 106.839 91.4584 106.872 91.4261 106.896C91.3938 106.92 91.3549 106.934 91.3147 106.935C90.0093 106.971 86.8344 106.872 83.3721 108.203C83.3057 108.228 83.2464 108.268 83.1997 108.322C83.1529 108.375 83.1201 108.439 83.1041 108.508C83.0881 108.577 83.0895 108.649 83.108 108.718C83.1266 108.786 83.1618 108.849 83.2106 108.901C84.291 110.028 86.098 111.871 88.9551 111.753C92.2131 111.618 95.2706 109.383 96.707 108.162C96.8172 108.068 96.9049 107.951 96.9635 107.818C97.0221 107.686 97.0502 107.542 97.0456 107.397C97.041 107.253 97.0038 107.111 96.9369 106.982C96.87 106.854 96.7751 106.742 96.6591 106.655Z" fill="white"/>
<path d="M95.9453 148.686C95.8971 148.101 95.7173 147.535 95.4192 147.03C95.1212 146.524 94.7128 146.093 94.2244 145.768C93.2553 145.156 92.1355 144.825 90.9893 144.811C92.75 142.405 93.9759 139.651 94.5847 136.733C96.6583 126.904 91.3849 117.693 82.1282 113.727C82.4476 112.308 82.6448 110.864 82.7177 109.411C82.8123 107.825 82.7456 106.233 82.5187 104.659C82.4004 103.849 82.2029 103.053 81.9291 102.281C81.6417 101.43 81.1564 100.659 80.5131 100.031C80.3637 99.8939 80.1665 99.8205 79.9637 99.8266C79.7609 99.8327 79.5686 99.9178 79.4276 100.064C79.2866 100.21 79.2082 100.405 79.2091 100.608C79.21 100.811 79.29 101.005 79.4323 101.15L79.465 101.185C79.8885 101.655 80.1995 102.215 80.3746 102.823C80.5828 103.499 80.7254 104.193 80.8004 104.896C80.9499 106.351 80.9533 107.817 80.8104 109.273C80.6986 110.526 80.4872 111.769 80.178 112.989C80.173 113.012 79.0523 116.963 78.8004 117.236L79.3113 117.242C79.4625 117.232 79.6162 117.229 79.7674 117.214C79.9211 117.204 80.0722 117.187 80.2209 117.169L80.6416 117.119L80.7777 117.103C80.9844 117.078 81.1935 117.127 81.3673 117.242C81.5411 117.357 81.6681 117.53 81.7256 117.73C81.783 117.93 81.767 118.144 81.6806 118.334C81.5941 118.524 81.4428 118.676 81.2539 118.764C81.0679 118.854 80.8769 118.934 80.6819 119.003C80.498 119.074 80.3116 119.124 80.1251 119.177C79.7503 119.275 79.3689 119.346 78.9838 119.389C78.1991 119.473 77.406 119.435 76.6331 119.275C76.2404 119.194 75.8546 119.083 75.4791 118.943C75.1085 118.791 74.7512 118.609 74.4108 118.398C73.7354 117.987 73.1438 117.452 72.6673 116.821C72.5382 116.658 72.471 116.455 72.4776 116.247C72.4842 116.039 72.5641 115.84 72.7033 115.686C72.8424 115.531 73.0318 115.431 73.2378 115.403C73.4438 115.374 73.6532 115.42 73.8288 115.531L73.9195 115.589C74.4079 115.933 74.9226 116.238 75.459 116.501C75.7195 116.627 75.987 116.738 76.2602 116.834C76.2904 116.844 76.492 116.928 76.5222 116.938C76.8031 116.487 77.0604 116.021 77.2932 115.544C77.5934 114.91 77.8403 114.251 78.0314 113.576C78.1397 113.213 78.233 112.845 78.3186 112.473C78.0768 112.415 77.8349 112.352 77.588 112.301C65.4942 109.749 54.5645 116.4 52.1634 127.776C51.2785 131.867 51.6563 136.13 53.2468 140.001C52.69 140.238 52.1659 140.475 51.6771 140.706C48.6335 142.148 39.8202 148.124 37.5577 151.661C37.1194 152.301 36.9295 153.079 37.0235 153.848C37.2982 156.31 43.466 162.175 45.5773 162.861C45.9366 162.98 46.3123 163.043 46.691 163.047C47.3394 163.038 47.9708 162.838 48.505 162.47C48.8578 162.243 49.2936 161.896 49.7975 161.493C50.9565 160.563 52.5464 159.288 54.0581 158.756C56.9051 157.756 61.2715 158.076 64.7812 158.333C66.3987 158.451 67.7971 158.552 68.9183 158.527C74.2647 158.399 91.9367 153.949 94.9576 151.22C95.3055 150.902 95.5755 150.508 95.7467 150.068C95.918 149.629 95.9859 149.156 95.9453 148.686ZM67.3385 124.214C67.3939 124.076 67.4827 123.955 67.597 123.86C67.7112 123.766 67.8471 123.701 67.9925 123.673C68.138 123.644 68.2882 123.653 68.4296 123.697C68.571 123.741 68.6991 123.82 68.8024 123.926C68.9143 124.066 68.9692 124.244 68.9561 124.423C68.9479 124.609 68.8777 124.787 68.7567 124.928C68.6357 125.07 68.4709 125.167 68.2884 125.204C68.1536 125.235 68.0132 125.23 67.8807 125.191C67.7482 125.151 67.6282 125.078 67.5325 124.978C67.4368 124.878 67.3686 124.755 67.3346 124.621C67.3006 124.487 67.302 124.347 67.3385 124.214ZM63.1637 124.995C63.219 124.857 63.3079 124.736 63.4221 124.641C63.5363 124.547 63.6723 124.483 63.8177 124.454C63.9631 124.425 64.1133 124.434 64.2547 124.478C64.3962 124.522 64.5243 124.601 64.6275 124.707C64.7394 124.848 64.7943 125.025 64.7812 125.204C64.7716 125.39 64.7006 125.567 64.5793 125.709C64.458 125.85 64.2934 125.947 64.111 125.985C63.9764 126.015 63.8361 126.011 63.7039 125.971C63.5717 125.931 63.452 125.858 63.3566 125.758C63.2612 125.659 63.1932 125.536 63.1594 125.402C63.1256 125.268 63.127 125.128 63.1637 124.995ZM63.9548 130.973C63.9448 131.159 63.8737 131.337 63.7525 131.478C63.6313 131.619 63.4668 131.716 63.2846 131.754C63.1497 131.785 63.0092 131.781 62.8767 131.741C62.7443 131.701 62.6244 131.627 62.5289 131.527C62.4334 131.427 62.3655 131.304 62.3319 131.17C62.2983 131.036 62.3002 130.895 62.3372 130.762C62.3926 130.625 62.4813 130.503 62.5954 130.409C62.7095 130.315 62.8454 130.251 62.9906 130.223C63.1358 130.194 63.2858 130.203 63.4269 130.247C63.568 130.292 63.6958 130.371 63.7986 130.477C63.9112 130.617 63.967 130.794 63.9548 130.973ZM61.5083 121.077C61.5639 120.939 61.6529 120.818 61.7672 120.724C61.8815 120.63 62.0176 120.566 62.163 120.537C62.3084 120.509 62.4586 120.517 62.5999 120.562C62.7412 120.606 62.8692 120.686 62.9722 120.792C63.0841 120.932 63.139 121.109 63.1259 121.288C63.1168 121.474 63.0464 121.652 62.9255 121.793C62.8047 121.934 62.6403 122.032 62.4582 122.069C62.3232 122.1 62.1826 122.096 62.0499 122.056C61.9173 122.016 61.7973 121.943 61.7016 121.843C61.6059 121.743 61.5378 121.619 61.5039 121.485C61.47 121.351 61.4715 121.21 61.5083 121.077ZM58.3236 126.554C58.3792 126.417 58.4682 126.296 58.5825 126.201C58.6968 126.107 58.8329 126.043 58.9783 126.015C59.1237 125.986 59.2739 125.995 59.4152 126.039C59.5565 126.084 59.6845 126.163 59.7875 126.269C59.9002 126.409 59.9559 126.587 59.9437 126.766C59.9337 126.952 59.8626 127.129 59.7414 127.27C59.6202 127.412 59.4557 127.509 59.2735 127.547C59.1385 127.578 58.9979 127.573 58.8653 127.533C58.7326 127.494 58.6126 127.42 58.5169 127.32C58.4212 127.22 58.3531 127.097 58.3192 126.963C58.2853 126.828 58.2868 126.688 58.3236 126.554ZM93.4383 149.537C91.0397 151.704 73.9775 156.136 68.8628 156.259C67.8525 156.285 66.4416 156.181 64.9475 156.07C61.2287 155.798 56.5978 155.461 53.3047 156.617C51.4302 157.277 49.6665 158.691 48.379 159.721C47.9255 160.084 47.5325 160.399 47.278 160.563C47.1391 160.675 46.9724 160.746 46.7958 160.771C46.6192 160.795 46.4393 160.771 46.2752 160.701C44.6653 160.182 39.4347 154.869 39.2785 153.596C39.2604 153.471 39.2678 153.343 39.3003 153.221C39.3327 153.098 39.3896 152.983 39.4675 152.883C41.347 149.946 49.5632 144.216 52.6471 142.757C55.4186 141.445 59.3793 139.908 64.4083 139.908C66.1273 139.91 67.8416 140.086 69.5255 140.432C73.5441 141.248 78.9989 142.793 80.3343 143.493C81.1632 143.931 81.5814 144.66 81.4529 145.446C81.3934 145.802 81.2197 146.129 80.9578 146.377C80.696 146.626 80.3604 146.783 80.0017 146.824C78.8276 147.005 77.336 146.791 75.7563 146.564C73.0578 146.174 69.9966 145.735 67.4191 147.172C67.2001 147.294 67.0279 147.486 66.9296 147.717C66.8312 147.948 66.8122 148.206 66.8756 148.449C66.9389 148.692 67.081 148.907 67.2797 149.061C67.4783 149.214 67.7223 149.298 67.9734 149.298C68.1669 149.298 68.3569 149.247 68.5252 149.152C70.4325 148.089 72.9747 148.454 75.4338 148.809C77.1672 149.059 78.8049 149.293 80.299 149.071H80.3091C81.7129 148.86 83.1016 148.558 84.4663 148.167C87.5981 147.353 91.1481 146.433 92.9596 147.65C93.1602 147.785 93.3288 147.962 93.4538 148.168C93.5787 148.375 93.6568 148.607 93.6827 148.847C93.6997 148.973 93.6864 149.102 93.6439 149.222C93.6014 149.342 93.531 149.45 93.4383 149.537Z" fill="white"/>
</svg>
