<svg width="200" height="200" viewBox="0 0 200 200" fill="none" xmlns="http://www.w3.org/2000/svg">
<rect width="200" height="200" rx="100" fill="#3D6BFF"/>
<path d="M32 89.7673C32 89.0275 32.2128 88.3008 32.6169 87.6609C33.021 87.0211 33.602 86.4908 34.301 86.1237L98.2344 52.5526C98.9244 52.1905 99.7054 52 100.5 52C101.295 52 102.076 52.1905 102.766 52.5526L166.699 86.1237C167.398 86.4908 167.979 87.0211 168.383 87.6609C168.787 88.3008 169 89.0275 169 89.7673C169 90.5071 168.787 91.2337 168.383 91.8736C167.979 92.5134 167.398 93.0437 166.699 93.4108L102.766 126.982C102.076 127.344 101.295 127.535 100.5 127.535C99.7053 127.535 98.9244 127.344 98.2344 126.982L34.301 93.4108C33.602 93.0437 33.021 92.5134 32.6169 91.8736C32.2128 91.2337 32 90.5071 32 89.7673ZM162.168 107.106L100.5 139.487L38.8323 107.106C37.7808 106.555 36.5347 106.411 35.3675 106.704C34.2003 106.998 33.2075 107.705 32.6072 108.67C32.0068 109.636 31.848 110.781 32.1656 111.854C32.4832 112.926 33.2512 113.84 34.301 114.393L98.2344 147.964C98.9244 148.326 99.7053 148.517 100.5 148.517C101.295 148.517 102.076 148.326 102.766 147.964L166.699 114.393C167.749 113.84 168.517 112.926 168.834 111.854C169.152 110.781 168.993 109.636 168.393 108.67C167.793 107.705 166.8 106.998 165.633 106.704C164.465 106.411 163.219 106.555 162.168 107.106Z" fill="white"/>
</svg>
